# xmcd
#
# Track frame offsets:
#	150
#	14998
#	26589
#	38452
#	49277
#	64802
#	76331
#	89646
#	108069
#	130420
#	147623
#	156779
#	172319
#	197066
#	212946
#
# Disc length: 3008 seconds
#
# Revision: 1
# Processed by: cddbd v1.5.2PL0 Copyright (c) Steve Scherf et al.
# Submitted via: audiograbber 1.83.01
#
DISCID=e00bbe0f
DTITLE=John Permenter - Live On Stage
DYEAR=1900
DGENRE=Country
TTITLE0=Texas Fiddle Man
TTITLE1=Louisiana Saturday Night
TTITLE2=Amarillo By Morning
TTITLE3=Uncle Pen
TTITLE4=Seven Spanish Angels
TTITLE5=Let Your Love Flow
TTITLE6=Highway 40 Blues
TTITLE7=South Of The Border
TTITLE8=The Devel Went Down To Georgia
TTITLE9=Sing Me Back Home
TTITLE10=Diggy Liggy Lo
TTITLE11=We're From The Country
TTITLE12=Seminole Wind
TTITLE13=Orange Blossom Special
TTITLE14=T.R.O.U.B.L.E.
EXTD=
EXTT0=
EXTT1=
EXTT2=
EXTT3=
EXTT4=
EXTT5=
EXTT6=
EXTT7=
EXTT8=
EXTT9=
EXTT10=
EXTT11=
EXTT12=
EXTT13=
EXTT14=
PLAYORDER=
